Coordinates
version=1
nRows=17
nColumns=38
inDegrees=no

Units are S.I. units (second, meters, Newtons, ...)
If the header above contains a line with 'inDegrees', this indicates whether rotational values are in degrees (yes) or radians (no).

endheader
time	pelvis_tilt	pelvis_list	pelvis_rotation	pelvis_tx	pelvis_ty	pelvis_tz	hip_flexion_r	hip_adduction_r	hip_rotation_r	knee_angle_r	ankle_angle_r	subtalar_angle_r	mtp_angle_r	hip_flexion_l	hip_adduction_l	hip_rotation_l	knee_angle_l	ankle_angle_l	subtalar_angle_l	mtp_angle_l	lumbar_extension	lumbar_bending	lumbar_rotation	arm_flex_r	arm_add_r	arm_rot_r	elbow_flex_r	pro_sup_r	wrist_flex_r	wrist_dev_r	arm_flex_l	arm_add_l	arm_rot_l	elbow_flex_l	pro_sup_l	wrist_flex_l	wrist_dev_l
1.04	-2.6098	1.42261	-2.16473	0.695124	1.25541	1.02754	0.0499242	-0.0476049	0.116845	1.3181	-0.28331	0	0	0.0728925	0.108906	-0.185696	0.446152	-0.220357	0	0	-0.522479	-0.0725941	0.146361	-0.169844	-0.279068	0.0747239	0.607456	1.47736	0	0	0.0474988	-0.303843	0.653865	0.462872	1.07141	0	0
1.05	-2.64111	1.42529	-2.1265	0.694576	1.26545	1.02911	0.078225	-0.0404096	0.11575	1.34213	-0.279235	0	0	0.0596525	0.104357	-0.18253	0.442999	-0.217762	0	0	-0.530839	-0.0681376	0.15727	-0.170873	-0.287854	0.102147	0.609011	1.43234	0	0	0.0588917	-0.29981	0.64534	0.462568	1.09053	0	0
1.06	-2.67317	1.42819	-2.0889	0.694113	1.27526	1.03064	0.107348	-0.033928	0.114498	1.36197	-0.267556	0	0	0.0457305	0.0999401	-0.180239	0.437918	-0.211762	0	0	-0.53639	-0.0621943	0.166397	-0.175522	-0.282643	0.0784082	0.612305	1.44631	0	0	0.0739278	-0.296846	0.663184	0.455684	1.08438	0	0
1.07	-2.72635	1.42581	-2.03252	0.693849	1.28452	1.03235	0.130403	-0.0273414	0.114158	1.37644	-0.263645	0	0	0.0256022	0.0947742	-0.182612	0.431056	-0.209618	0	0	-0.534017	-0.0500228	0.14393	-0.163494	-0.285705	0.0918368	0.613686	1.4468	0	0	0.0651882	-0.29556	0.653731	0.44774	1.07757	0	0
1.08	-2.74997	1.43152	-2.00635	0.693632	1.29405	1.03352	0.163382	-0.0211404	0.113757	1.38656	-0.258222	0	0	0.0156072	0.0903233	-0.181502	0.422844	-0.207424	0	0	-0.539758	-0.0479959	0.164554	-0.171252	-0.288611	0.0890372	0.620599	1.42166	0	0	0.0831412	-0.291752	0.661214	0.445667	1.09091	0	0
1.09	-2.77891	1.43284	-1.97557	0.693557	1.30321	1.03466	0.191595	-0.0157034	0.112254	1.39137	-0.252021	0	0	0.00175181	0.0864179	-0.181299	0.414789	-0.205418	0	0	-0.531977	-0.0387742	0.143402	-0.157777	-0.287334	0.0951917	0.615957	1.44646	0	0	0.0732395	-0.29319	0.654938	0.441942	1.07476	0	0
1.1	-2.79013	1.43969	-1.96285	0.693446	1.31272	1.03541	0.225076	-0.0108642	0.110781	1.39082	-0.246642	0	0	-0.00531419	0.0828851	-0.179785	0.407252	-0.204015	0	0	-0.534972	-0.0384094	0.162702	-0.165241	-0.286223	0.081407	0.62064	1.44644	0	0	0.0880242	-0.292822	0.666047	0.445862	1.07907	0	0
1.11	-2.81343	1.44172	-1.93867	0.693364	1.32196	1.03621	0.252257	-0.00705547	0.110451	1.38597	-0.240307	0	0	-0.0177674	0.0796759	-0.179125	0.399893	-0.2021	0	0	-0.531553	-0.0321595	0.155167	-0.162007	-0.286617	0.0789082	0.62546	1.4511	0	0	0.0858788	-0.294148	0.666038	0.445507	1.07578	0	0
1.12	-2.83515	1.44377	-1.91558	0.693321	1.33134	1.03689	0.277878	-0.00402152	0.108792	1.37606	-0.232328	0	0	-0.0306261	0.0769881	-0.177191	0.39168	-0.199556	0	0	-0.526143	-0.0258886	0.143143	-0.155076	-0.287085	0.083303	0.62571	1.45928	0	0	0.0796362	-0.296767	0.66123	0.447279	1.06967	0	0
1.13	-2.85167	1.4494	-1.89664	0.693388	1.34108	1.03738	0.305317	-0.00146442	0.104298	1.36058	-0.225002	0	0	-0.03983	0.0739529	-0.172718	0.383716	-0.196906	0	0	-0.527583	-0.0243585	0.155299	-0.159863	-0.286566	0.0757095	0.628896	1.46064	0	0	0.0882137	-0.298412	0.666066	0.454191	1.07166	0	0
1.14	-2.88572	1.45263	-1.85947	0.693544	1.35079	1.03797	0.327635	0.000908797	0.0969198	1.33941	-0.216968	0	0	-0.0522156	0.0695687	-0.167293	0.375633	-0.19312	0	0	-0.520559	-0.0176584	0.140377	-0.135624	-0.332849	0.242945	0.628236	1.26457	0	0	0.0707056	-0.293088	0.594874	0.4572	1.12385	0	0
1.15	-2.91763	1.45653	-1.82296	0.69375	1.36059	1.03839	0.34899	0.00140131	0.0865269	1.31324	-0.212428	0	0	-0.0637732	0.0652806	-0.159117	0.367009	-0.188923	0	0	-0.5246	-0.0132723	0.153503	-0.159036	-0.285434	0.0715256	0.633205	1.46965	0	0	0.0900003	-0.308113	0.676969	0.470179	1.05114	0	0
1.16	-2.95591	1.45813	-1.78093	0.693822	1.37023	1.03865	0.367162	0.000278831	0.0743866	1.28405	-0.21097	0	0	-0.0765964	0.0603331	-0.156239	0.360726	-0.186453	0	0	-0.516619	-0.00314344	0.134276	-0.151719	-0.287019	0.080527	0.635719	1.47145	0	0	0.0787526	-0.31183	0.669052	0.47235	1.04627	0	0
1.17	-2.96884	1.46902	-1.76321	0.693697	1.38046	1.03836	0.394021	-0.0041686	0.0589391	1.25136	-0.209215	0	0	-0.0792793	0.0571075	-0.150057	0.353608	-0.184201	0	0	-0.519462	-0.004922	0.164285	-0.16697	-0.292226	0.0816101	0.644164	1.43687	0	0	0.0969195	-0.311162	0.674061	0.483456	1.06871	0	0
1.18	-2.99604	1.47337	-1.73194	0.693541	1.3903	1.03831	0.412291	-0.00988975	0.0412636	1.21508	-0.202853	0	0	-0.0897639	0.0544749	-0.143449	0.344145	-0.180726	0	0	-0.518125	-0.000322491	0.168235	-0.172832	-0.291541	0.0699789	0.652325	1.43798	0	0	0.101286	-0.314237	0.683932	0.490715	1.0656	0	0
1.19	-3.0359	1.47209	-1.69005	0.693581	1.39969	1.03837	0.423083	-0.0142198	0.0261337	1.17553	-0.200332	0	0	-0.105147	0.0508038	-0.143524	0.337455	-0.178574	0	0	-0.507936	0.0116218	0.13781	-0.160831	-0.291161	0.0741933	0.6541	1.46324	0	0	0.0818564	-0.317824	0.668367	0.491232	1.05445	0	0
1.2	-3.06326	1.47798	-1.66035	0.693641	1.40954	1.03797	0.439465	-0.0195588	0.0098196	1.1322	-0.195161	0	0	-0.11299	0.0474937	-0.141765	0.330319	-0.176048	0	0	-0.507602	0.0140018	0.150012	-0.167005	-0.299175	0.0882585	0.66201	1.42566	0	0	0.0890694	-0.317934	0.671052	0.497347	1.06238	0	0
